<?xml version="1.0" encoding="UTF-8" standalone="no"?>
<!DOCTYPE svg  PUBLIC '-//W3C//DTD SVG 1.1//EN'  'http://www.w3.org/Graphics/SVG/1.1/DTD/svg11.dtd'>
<svg stroke-linejoin="round" xmlns="http://www.w3.org/2000/svg" clip-rule="evenodd" fill-rule="evenodd" xml:space="preserve" height="100%" width="100%" version="1.1" xmlns:serif="http://www.serif.com/" stroke-miterlimit="1.4142" xmlns:xlink="http://www.w3.org/1999/xlink" viewBox="0 0 512 512">
    <path fill="#db534c" d="m385.26 311.48c-2.47-8.37-5.47-15.65-8.99-21.84s-8.56-12.23-15.13-18.13c-6.56-5.91-12.47-10.66-17.7-14.27-5.23-3.62-12.42-7.66-21.56-12.14-9.13-4.48-16.36-7.8-21.69-10-5.33-2.18-13.04-5.18-23.13-8.99-8.95-3.42-15.61-6.04-19.99-7.85-4.37-1.8-10.13-4.37-17.27-7.71-7.13-3.32-12.46-6.28-15.99-8.84-3.52-2.57-7.27-5.71-11.27-9.42s-6.81-7.66-8.43-11.85c-1.61-4.19-2.42-8.76-2.42-13.71 0-12.94 5.71-23.5 17.13-31.69 11.42-8.18 26.17-12.27 44.25-12.27 7.99 0 16.14 1.09 24.41 3.28 8.28 2.19 15.37 4.66 21.27 7.42 5.91 2.77 11.47 5.81 16.71 9.14 5.23 3.33 8.94 5.85 11.13 7.57 2.19 1.71 3.58 2.85 4.14 3.42 2.48 1.91 5.04 2.57 7.71 2 2.85-0.19 5.04-1.71 6.57-4.56l23.13-41.69c2.28-3.8 1.81-7.42-1.43-10.849-1.14-1.142-2.56-2.473-4.29-3.997-1.71-1.524-5.42-4.283-11.13-8.282-5.71-3.996-11.76-7.565-18.13-10.706-6.38-3.138-14.66-6.328-24.84-9.562-10.18-3.239-20.7-5.426-31.55-6.567v-50.251c0-2.663-0.86-4.853-2.57-6.567-1.71-1.71-3.9-2.569-6.57-2.569h-38.54c-2.48 0-4.62 0.903-6.43 2.712-1.8 1.809-2.71 3.949-2.71 6.424v51.391c-29.88 5.708-54.15 18.461-72.8 38.256-18.65 19.797-27.98 42.827-27.98 69.097 0 7.8 0.81 15.22 2.43 22.26 1.61 7.04 3.61 13.37 5.99 18.99s5.76 11.13 10.14 16.56c4.38 5.42 8.52 10.09 12.42 13.99s8.99 7.94 15.27 12.13 11.66 7.57 16.14 10.14c4.47 2.56 10.42 5.52 17.84 8.84 7.42 3.33 13.28 5.85 17.56 7.57 4.28 1.71 10.14 4.09 17.56 7.13 10.28 4 17.89 7.09 22.84 9.28s11.23 5.24 18.85 9.14c7.61 3.9 13.18 7.47 16.7 10.71 3.52 3.23 6.71 7.23 9.57 11.99 2.85 4.75 4.28 9.8 4.28 15.13 0 15.04-5.85 26.64-17.56 34.82-11.7 8.19-25.27 12.28-40.68 12.28-7.04 0-14.09-0.76-21.13-2.28-24.74-4.95-47.87-16.85-69.37-35.69l-0.58-0.57c-1.71-2.09-4-2.95-6.85-2.56-3.04 0.38-5.23 1.52-6.56 3.42l-29.41 38.54c-2.86 3.81-2.66 7.71 0.57 11.71 0.95 1.14 2.62 2.86 5 5.14 2.38 2.29 6.81 5.85 13.27 10.71 6.47 4.86 13.52 9.42 21.13 13.71 7.62 4.28 17.27 8.51 28.98 12.7s23.84 7.13 36.4 8.85v49.96c0 2.48 0.91 4.62 2.72 6.43s3.95 2.71 6.42 2.71h38.55c2.66 0 4.85-0.86 6.56-2.57 1.72-1.71 2.57-3.9 2.57-6.57v-49.96c30.27-4.95 54.87-17.94 73.8-38.98 18.94-21.03 28.41-46.1 28.41-75.22-0.01-9.52-1.24-18.46-3.74-26.84z" fill-rule="nonzero"/>
</svg>
