<?xml version="1.0" encoding="utf-8"?>
<!-- Generator: Adobe Illustrator 22.1.0, SVG Export Plug-In . SVG Version: 6.00 Build 0)  -->
<svg version="1.1" id="Vrstva_1" xmlns="http://www.w3.org/2000/svg" xmlns:xlink="http://www.w3.org/1999/xlink" x="0px" y="0px"
	 viewBox="0 0 1792 1792" style="enable-background:new 0 0 1792 1792;" xml:space="preserve">
<style type="text/css">
	.st0{fill:url(#SVGID_1_);}
</style>
<linearGradient id="SVGID_1_" gradientUnits="userSpaceOnUse" x1="338.2566" y1="1156.0565" x2="1453.6768" y2="40.6364">
	<stop  offset="0" style="stop-color:#DB534C"/>
	<stop  offset="1" style="stop-color:#F46D4C"/>
</linearGradient>
<path class="st0" d="M1280,1024h305c-3.3,4-6.7,7.5-10,10.5s-6.3,5.5-9,7.5l-3,4l-623,600c-12,12-26.7,18-44,18s-32-6-44-18
	l-624-602c-3.3-1.3-10.3-8-21-20h369c14.7,0,27.8-4.5,39.5-13.5S634.7,990,638,976l70-281l190,667c4,13.3,11.7,24.3,23,33
	s24.3,13,39,13c14,0,26.7-4.3,38-13s19-19.7,23-33l146-485l56,112C1235,1012.3,1254,1024,1280,1024z M1792,596
	c0,96.7-34.3,196.7-103,300h-369l-111-221c-5.3-11.3-13.8-20.3-25.5-27s-23.8-9.3-36.5-8c-30,3.3-48.7,18.7-56,46l-129,430L766,430
	c-4-13.3-11.8-24.3-23.5-33s-24.8-13-39.5-13s-27.7,4.5-39,13.5S645.3,418,642,432L526,896H103C34.3,792.7,0,692.7,0,596
	c0-146.7,42.3-261.3,127-344s201.7-124,351-124c41.3,0,83.5,7.2,126.5,21.5s83,33.7,120,58s68.8,47.2,95.5,68.5s52,44,76,68
	c24-24,49.3-46.7,76-68s58.5-44.2,95.5-68.5s77-43.7,120-58S1272.7,128,1314,128c149.3,0,266.3,41.3,351,124S1792,449.3,1792,596z"
	/>
</svg>
