<?xml version="1.0" encoding="UTF-8" standalone="no"?>
<!DOCTYPE svg  PUBLIC '-//W3C//DTD SVG 1.1//EN'  'http://www.w3.org/Graphics/SVG/1.1/DTD/svg11.dtd'>
<svg stroke-linejoin="round" xmlns="http://www.w3.org/2000/svg" clip-rule="evenodd" fill-rule="evenodd" xml:space="preserve" height="100%" width="100%" version="1.1" xmlns:serif="http://www.serif.com/" stroke-miterlimit="1.4142" xmlns:xlink="http://www.w3.org/1999/xlink" viewBox="0 0 1792 1792">
    <g id="path3041" transform="matrix(.59876 0 0 -.59876 6.7834 638.5)">
        <path fill="#db534c" d="m648.2-1020.8c-67.7 0-125.6 24.1-173.8 72.3-48.3 48.2-72.4 106.2-72.4 173.9v1083c0 67.7 24.1 125.6 72.3 173.8s106.2 72.3 173.8 72.3h1673.9c67.7 0 125.6-24.1 173.8-72.3s72.3-106.2 72.3-173.8v-1083c0-67.7-24.1-125.6-72.3-173.8s-106.2-72.3-173.8-72.3h-1673.8v-0.1zm-49.3 1329.2v-1083c0-13.3 4.9-24.9 14.6-34.6s21.3-14.6 34.6-14.6h1673.9c13.3 0 24.9 4.9 34.6 14.6s14.6 21.3 14.6 34.6v1083c0 13.3-4.9 24.9-14.6 34.6s-21.3 14.6-34.6 14.6h-1673.8c-13.3 0-24.9-4.9-34.6-14.6s-14.7-21.2-14.7-34.6zm2117-1427.6h246.1v-147.7c0-41-24.1-75.9-72.3-104.6s-106.2-43.1-173.8-43.1h-2461.6c-67.7 0-125.6 14.4-173.8 43.1s-72.3 63.6-72.3 104.6v147.7h2707.7zm-1107.7-147.7c16.4 0 24.6 8.2 24.6 24.6s-8.2 24.6-24.6 24.6h-246.2c-16.4 0-24.6-8.2-24.6-24.6s8.2-24.6 24.6-24.6h246.2z" fill-rule="nonzero"/>
    </g>
</svg>
