<?xml version="1.0" encoding="UTF-8" standalone="no"?>
<!DOCTYPE svg  PUBLIC '-//W3C//DTD SVG 1.1//EN'  'http://www.w3.org/Graphics/SVG/1.1/DTD/svg11.dtd'>
<svg stroke-linejoin="round" xmlns="http://www.w3.org/2000/svg" clip-rule="evenodd" fill-rule="evenodd" xml:space="preserve" height="100%" width="100%" version="1.1" xmlns:serif="http://www.serif.com/" stroke-miterlimit="1.4142" xmlns:xlink="http://www.w3.org/1999/xlink" viewBox="0 0 1792 1792">
    <path fill="#db534c" d="m384 1152c0-35.3-12.5-65.5-37.5-90.5s-55.17-37.5-90.5-37.5-65.5 12.5-90.5 37.5-37.5 55.2-37.5 90.5 12.5 65.5 37.5 90.5 55.17 37.5 90.5 37.5 65.5-12.5 90.5-37.5 37.5-55.2 37.5-90.5zm192-448c0-35.33-12.5-65.5-37.5-90.5s-55.17-37.5-90.5-37.5-65.5 12.5-90.5 37.5-37.5 55.17-37.5 90.5 12.5 65.5 37.5 90.5 55.17 37.5 90.5 37.5 65.5-12.5 90.5-37.5 37.5-55.17 37.5-90.5zm428 481l101-382c4-17.33 1.5-33.5-7.5-48.5s-21.8-24.83-38.5-29.5-32.7-2.5-48 6.5c-15.33 9-25.33 22.17-30 39.5l-101 382c-40 3.3-75.67 17.8-107 43.5s-52.33 58.5-63 98.5c-13.33 51.3-6.67 100 20 146s65.67 75.7 117 89 100 6.7 146-20 75.7-65.7 89-117c10.7-40 8.7-79-6-117s-38.7-68.3-72-91zm660-33c0-35.3-12.5-65.5-37.5-90.5s-55.2-37.5-90.5-37.5-65.5 12.5-90.5 37.5-37.5 55.2-37.5 90.5 12.5 65.5 37.5 90.5 55.2 37.5 90.5 37.5 65.5-12.5 90.5-37.5 37.5-55.2 37.5-90.5zm-640-640c0-35.33-12.5-65.5-37.5-90.5s-55.17-37.5-90.5-37.5-65.5 12.5-90.5 37.5-37.5 55.17-37.5 90.5 12.5 65.5 37.5 90.5 55.17 37.5 90.5 37.5 65.5-12.5 90.5-37.5 37.5-55.17 37.5-90.5zm448 192c0-35.33-12.5-65.5-37.5-90.5s-55.2-37.5-90.5-37.5-65.5 12.5-90.5 37.5-37.5 55.17-37.5 90.5 12.5 65.5 37.5 90.5 55.2 37.5 90.5 37.5 65.5-12.5 90.5-37.5 37.5-55.17 37.5-90.5zm320 448c0 174-47 335-141 483-12.7 19.3-30.7 29-54 29h-1402c-23.33 0-41.33-9.7-54-29-94-147.3-141-308.3-141-483 0-121.3 23.667-237.33 71-348 47.33-110.67 111-206 191-286s175.33-143.67 286-191 226.67-71 348-71c121.3 0 237.3 23.67 348 71s206 111 286 191 143.7 175.33 191 286 71 226.7 71 348z" fill-rule="nonzero"/>
</svg>
